<svg id="Layer_1" data-name="Layer 1" xmlns="http://www.w3.org/2000/svg" xmlns:xlink="http://www.w3.org/1999/xlink" viewBox="0 0 1801.13 202.25"><defs><style>.cls-1{fill:none;}.cls-2{clip-path:url(#clip-path);}.cls-3{fill:#5ce1e6;}</style><clipPath id="clip-path" transform="translate(126.02 -826.12)"><rect class="cls-1" width="1440" height="900"/></clipPath></defs><g class="cls-2"><path class="cls-3" d="M1399,869.86c-13.62-23.84-48.44-22.45-60.13,2.39-4.45,9.44,5.55-11.81,0,0a41.91,41.91,0,0,1-63.54,15.31L1234,855.68a49.45,49.45,0,0,0-77.1,23.33h0c-7.92,23.5-39,28.43-53.78,8.54l-20.43-27.46a38.75,38.75,0,0,0-64.49,3.49L1002.67,890a17,17,0,0,1-30.35-2.15L964,867.63a36,36,0,0,0-60.69-9.73c-7.34,8.57,7.66-8.93,0,0a47.25,47.25,0,0,1-72.44-.82l-9.78-12c-23.21-28.36-67.71-24.33-85.46,7.73l-12.83,23.19a16.51,16.51,0,0,1-28.49.68l-13.25-21.42a32.92,32.92,0,0,0-54.78-1.83l-23.08,32.28c-9.39,13.14-29.9,9.1-33.6-6.63-3.1-13.18-.35-1.51-2.81-12-4.59-19.5-30.62-23.44-40.78-6.17l-10.9,18.54a27.27,27.27,0,0,1-47,0l-6.36-10.82c-14.26-24.24-49.58-23.45-62.74,1.41-5.23,9.87,6-11.38,0,0-10.36,19.56-38.84,18.12-47.18-2.38-4.43-10.9,2.32,5.68-2.37-5.83-6.18-15.21-28.22-13.55-32.06,2.41-2.66,11,.47-2-2.48,10.28-3.59,14.9-23.94,17-30.46,3.11l-5.38-11.43c-9.57-20.33-38.73-19.61-47.28,1.17-4.29,10.4,1.47-3.58-3.74,9.07-7,17.09-30.79,18.23-39.43,1.9-6.91-13-5.86-11.06-12.76-24.09-8-15.18-30.4-13.08-35.47,3.33l-8.52,27.56c-5.58,18.07-30.28,20.25-38.94,3.43-7.76-15.08-3.67-7.13-10.51-20.41-10.66-20.72-41-18.58-48.61,3.44C25.41,895.8-92.5,922.78-126,1019.28q149.81,0,1801.13,9.09Q1401.3,874,1399,869.86Z" transform="translate(126.02 -826.12)"/></g></svg>